<svg width="29" height="29" viewBox="0 0 29 29" fill="none" xmlns="http://www.w3.org/2000/svg">
<rect width="29" height="29" rx="5" fill="#ECEFF3"/>
<path d="M14.9999 21.6666C14.8444 21.6666 14.711 21.6222 14.5999 21.5333C14.4888 21.4444 14.4055 21.3278 14.3499 21.1833C14.1388 20.5611 13.8721 19.9778 13.5499 19.4333C13.2388 18.8889 12.7999 18.25 12.2333 17.5166C11.6666 16.7833 11.2055 16.0833 10.8499 15.4166C10.5055 14.75 10.3333 13.9444 10.3333 13C10.3333 11.7 10.7833 10.6 11.6833 9.69998C12.5944 8.78887 13.6999 8.33331 14.9999 8.33331C16.2999 8.33331 17.3999 8.78887 18.2999 9.69998C19.211 10.6 19.6666 11.7 19.6666 13C19.6666 14.0111 19.4721 14.8555 19.0833 15.5333C18.7055 16.2 18.2666 16.8611 17.7666 17.5166C17.1666 18.3166 16.711 18.9833 16.3999 19.5166C16.0999 20.0389 15.8499 20.5944 15.6499 21.1833C15.5944 21.3389 15.5055 21.4611 15.3833 21.55C15.2721 21.6278 15.1444 21.6666 14.9999 21.6666ZM14.9999 14.6666C15.4666 14.6666 15.861 14.5055 16.1833 14.1833C16.5055 13.8611 16.6666 13.4666 16.6666 13C16.6666 12.5333 16.5055 12.1389 16.1833 11.8166C15.861 11.4944 15.4666 11.3333 14.9999 11.3333C14.5333 11.3333 14.1388 11.4944 13.8166 11.8166C13.4944 12.1389 13.3333 12.5333 13.3333 13C13.3333 13.4666 13.4944 13.8611 13.8166 14.1833C14.1388 14.5055 14.5333 14.6666 14.9999 14.6666Z" fill="#8C8B8B"/>
</svg>
