<svg width="20" height="25" viewBox="0 0 20 25" fill="none" xmlns="http://www.w3.org/2000/svg">
<path d="M9.66667 12.0833C10.3313 12.0833 10.9002 11.8467 11.3734 11.3734C11.8467 10.9002 12.0833 10.3312 12.0833 9.66667C12.0833 9.00208 11.8467 8.43316 11.3734 7.9599C10.9002 7.48663 10.3313 7.25 9.66667 7.25C9.00208 7.25 8.43316 7.48663 7.9599 7.9599C7.48663 8.43316 7.25 9.00208 7.25 9.66667C7.25 10.3312 7.48663 10.9002 7.9599 11.3734C8.43316 11.8467 9.00208 12.0833 9.66667 12.0833ZM9.66667 24.1667C6.42431 21.4076 4.0026 18.845 2.40156 16.4786C0.800521 14.1123 0 11.9222 0 9.90833C0 6.8875 0.971701 4.4809 2.9151 2.68854C4.85851 0.896181 7.10903 0 9.66667 0C12.2243 0 14.4748 0.896181 16.4182 2.68854C18.3616 4.4809 19.3333 6.8875 19.3333 9.90833C19.3333 11.9222 18.5328 14.1123 16.9318 16.4786C15.3307 18.845 12.909 21.4076 9.66667 24.1667Z" fill="#F3274C"/>
</svg>
